<svg data-v-423bf9ae="" xmlns="http://www.w3.org/2000/svg" viewBox="0 0 641 90" class="iconLeft"><!----><!----><!----><g data-v-423bf9ae="" id="46d6bdb0-a5f8-4964-b127-a82a9366e5cd" fill="currentColor" transform="matrix(6.0301508693628145,0,0,6.0301508693628145,116.64032839144988,-1.8241202186530927)"><path d="M0.08 12.61L3.95 2.95L5.25 2.95L9.10 12.61L7.23 12.61L6.48 10.51L2.73 10.51L1.98 12.61L0.08 12.61ZM3.32 9.02L5.89 9.02L4.61 5.50L3.32 9.02ZM13.19 12.71L13.19 12.71Q12.30 12.71 11.52 12.39L11.52 12.39L11.52 12.39Q10.73 12.07 10.18 11.43L10.18 11.43L10.18 11.43Q9.64 10.79 9.49 9.88L9.49 9.88L11.21 9.44L11.21 9.44Q11.30 10.30 11.85 10.74L11.85 10.74L11.85 10.74Q12.40 11.18 13.21 11.18L13.21 11.18L13.21 11.18Q13.71 11.18 14.08 11.02L14.08 11.02L14.08 11.02Q14.44 10.86 14.62 10.58L14.62 10.58L14.62 10.58Q14.81 10.29 14.81 9.95L14.81 9.95L14.81 9.95Q14.81 9.53 14.55 9.24L14.55 9.24L14.55 9.24Q14.29 8.94 13.91 8.75L13.91 8.75L13.91 8.75Q13.53 8.56 12.86 8.29L12.86 8.29L12.86 8.29Q11.98 7.94 11.44 7.65L11.44 7.65L11.44 7.65Q10.90 7.35 10.52 6.82L10.52 6.82L10.52 6.82Q10.13 6.28 10.13 5.47L10.13 5.47L10.13 5.47Q10.13 4.64 10.54 4.04L10.54 4.04L10.54 4.04Q10.94 3.43 11.63 3.12L11.63 3.12L11.63 3.12Q12.32 2.80 13.15 2.80L13.15 2.80L13.15 2.80Q14.08 2.80 14.84 3.22L14.84 3.22L14.84 3.22Q15.61 3.64 16.08 4.50L16.08 4.50L14.64 5.38L14.64 5.38Q14.39 4.89 13.98 4.62L13.98 4.62L13.98 4.62Q13.57 4.35 13.08 4.35L13.08 4.35L13.08 4.35Q12.74 4.35 12.47 4.48L12.47 4.48L12.47 4.48Q12.19 4.61 12.03 4.84L12.03 4.84L12.03 4.84Q11.87 5.08 11.87 5.38L11.87 5.38L11.87 5.38Q11.87 5.75 12.11 6.01L12.11 6.01L12.11 6.01Q12.35 6.27 12.71 6.45L12.71 6.45L12.71 6.45Q13.08 6.62 13.71 6.87L13.71 6.87L13.71 6.87Q14.62 7.22 15.18 7.53L15.18 7.53L15.18 7.53Q15.74 7.83 16.14 8.39L16.14 8.39L16.14 8.39Q16.54 8.94 16.54 9.79L16.54 9.79L16.54 9.79Q16.54 10.68 16.10 11.34L16.10 11.34L16.10 11.34Q15.65 12.00 14.88 12.36L14.88 12.36L14.88 12.36Q14.12 12.71 13.19 12.71L13.19 12.71ZM18.20 12.61L18.20 2.95L19.93 2.95L19.93 7.98L24.64 2.95L26.96 2.95L23.10 6.90L27.04 12.61L24.88 12.61L21.90 8.07L19.93 10.10L19.93 12.61L18.20 12.61ZM30.59 12.61L34.46 2.95L35.76 2.95L39.61 12.61L37.73 12.61L36.99 10.51L33.24 10.51L32.48 12.61L30.59 12.61ZM33.82 9.02L36.40 9.02L35.12 5.50L33.82 9.02ZM44.30 12.61L44.30 2.95L46.03 2.95L46.03 10.96L50.16 10.96L50.16 12.61L44.30 12.61ZM55.54 12.74L55.54 12.74Q54.01 12.74 52.96 12.07L52.96 12.07L52.96 12.07Q51.91 11.40 51.40 10.27L51.40 10.27L51.40 10.27Q50.88 9.14 50.88 7.77L50.88 7.77L50.88 7.77Q50.88 6.41 51.40 5.28L51.40 5.28L51.40 5.28Q51.91 4.15 52.96 3.48L52.96 3.48L52.96 3.48Q54.01 2.80 55.54 2.80L55.54 2.80L55.54 2.80Q57.07 2.80 58.12 3.48L58.12 3.48L58.12 3.48Q59.17 4.15 59.69 5.28L59.69 5.28L59.69 5.28Q60.20 6.41 60.20 7.77L60.20 7.77L60.20 7.77Q60.20 9.14 59.69 10.27L59.69 10.27L59.69 10.27Q59.17 11.40 58.12 12.07L58.12 12.07L58.12 12.07Q57.07 12.74 55.54 12.74L55.54 12.74ZM55.54 11.20L55.54 11.20Q56.53 11.20 57.17 10.74L57.17 10.74L57.17 10.74Q57.80 10.28 58.08 9.51L58.08 9.51L58.08 9.51Q58.37 8.74 58.37 7.77L58.37 7.77L58.37 7.77Q58.37 6.81 58.08 6.04L58.08 6.04L58.08 6.04Q57.80 5.27 57.17 4.81L57.17 4.81L57.17 4.81Q56.53 4.35 55.54 4.35L55.54 4.35L55.54 4.35Q54.55 4.35 53.92 4.81L53.92 4.81L53.92 4.81Q53.29 5.27 53.00 6.04L53.00 6.04L53.00 6.04Q52.71 6.81 52.71 7.77L52.71 7.77L52.71 7.77Q52.71 8.74 53.00 9.51L53.00 9.51L53.00 9.51Q53.29 10.28 53.92 10.74L53.92 10.74L53.92 10.74Q54.55 11.20 55.54 11.20L55.54 11.20ZM66.00 12.74L66.00 12.74Q64.47 12.74 63.42 12.07L63.42 12.07L63.42 12.07Q62.36 11.40 61.84 10.27L61.84 10.27L61.84 10.27Q61.33 9.14 61.33 7.77L61.33 7.77L61.33 7.77Q61.33 6.41 61.84 5.27L61.84 5.27L61.84 5.27Q62.36 4.14 63.41 3.47L63.41 3.47L63.41 3.47Q64.46 2.79 65.99 2.79L65.99 2.79L65.99 2.79Q67.43 2.79 68.53 3.50L68.53 3.50L68.53 3.50Q69.63 4.22 70.21 5.56L70.21 5.56L68.59 6.21L68.59 6.21Q68.33 5.29 67.65 4.87L67.65 4.87L67.65 4.87Q66.97 4.44 65.97 4.44L65.97 4.44L65.97 4.44Q64.99 4.44 64.33 4.87L64.33 4.87L64.33 4.87Q63.68 5.30 63.36 6.04L63.36 6.04L63.36 6.04Q63.05 6.77 63.05 7.70L63.05 7.70L63.05 7.70Q63.05 8.70 63.36 9.46L63.36 9.46L63.36 9.46Q63.68 10.22 64.34 10.66L64.34 10.66L64.34 10.66Q65.00 11.09 66.00 11.09L66.00 11.09L66.00 11.09Q66.96 11.09 67.60 10.67L67.60 10.67L67.60 10.67Q68.24 10.25 68.62 9.30L68.62 9.30L70.23 9.96L70.23 9.96Q69.66 11.31 68.55 12.02L68.55 12.02L68.55 12.02Q67.45 12.74 66.00 12.74L66.00 12.74ZM70.64 12.61L74.50 2.95L75.80 2.95L79.65 12.61L77.78 12.61L77.03 10.51L73.28 10.51L72.53 12.61L70.64 12.61ZM73.87 9.02L76.45 9.02L75.16 5.50L73.87 9.02ZM80.98 12.61L80.98 2.95L82.71 2.95L82.71 10.96L86.84 10.96L86.84 12.61L80.98 12.61Z"></path></g><!----><g data-v-423bf9ae="" id="571d26fc-eb7f-43fb-8735-5cda1ab14752" transform="matrix(1.0791302542110073,0,0,1.0791302542110073,-4.956985536869141,-8.656742034437869)" stroke="none" fill="currentColor"><path d="M44.1 91.7c-.2 0-.5-.1-.7-.2-.5-.3-.8-.9-.7-1.5l2.1-14C22.1 74.1 5.1 59.9 5 42.5 4.9 23.8 25 8.4 49.8 8.3S94.9 23.3 95 42c.1 15.1-13.2 28.6-32.3 32.8L45.1 91.3c-.3.3-.6.4-1 .4zm5.7-80.6c-23.3.1-42.1 14.2-42 31.4.1 16 17.1 29.6 38.7 30.8.4 0 .7.2 1 .5.2.3.4.7.4 1v.2l-1.7 11.4 14.9-14c.2-.2.4-.3.7-.3 18-3.9 30.6-16.3 30.5-30.1-.2-17.1-19.2-31-42.5-30.9z"></path><path d="M69.3 49.8c-3.7 0-6.8-3-6.8-6.7s3-6.8 6.7-6.8 6.8 3 6.8 6.7c.1 3.8-2.9 6.8-6.7 6.8zm0-10.7c-2.2 0-3.9 1.8-3.9 4s1.8 3.9 4 3.9 3.9-1.8 3.9-4c-.1-2.1-1.8-3.9-4-3.9zM50 49.9c-3.7 0-6.8-3-6.8-6.7s3-6.8 6.7-6.8 6.8 3 6.8 6.7c.1 3.8-2.9 6.8-6.7 6.8zm0-10.7c-2.2 0-3.9 1.8-3.9 4s1.8 3.9 4 3.9 3.9-1.8 3.9-4c-.1-2.1-1.8-3.9-4-3.9zM30.7 50c-3.7 0-6.8-3-6.8-6.7s3-6.8 6.7-6.8 6.8 3 6.8 6.7c.1 3.8-2.9 6.8-6.7 6.8zm0-10.7c-2.2 0-3.9 1.8-3.9 4s1.8 3.9 4 3.9 3.9-1.8 3.9-4c-.1-2.1-1.8-3.9-4-3.9z"></path></g><!----></svg>