<svg data-v-423bf9ae="" xmlns="http://www.w3.org/2000/svg" viewBox="0 0 689 90" class="iconLeft"><!----><!----><!----><g data-v-423bf9ae="" id="317c632d-9f99-4ac6-b453-e5912a492497" fill="black" transform="matrix(5.988024248455585,0,0,5.988024248455585,117.18261805122552,-6.796410561477124)"><path d="M8.79 13.55L7.71 11.10L2.51 11.10L1.43 13.55L-0.01 13.55L4.42 3.75L5.81 3.75L10.26 13.55L8.79 13.55ZM3.00 9.98L7.22 9.98L5.11 5.18L3.00 9.98ZM14.57 13.66L14.57 13.66Q13.47 13.66 12.44 13.32L12.44 13.32L12.44 13.32Q11.41 12.98 10.82 12.43L10.82 12.43L11.34 11.34L11.34 11.34Q11.90 11.84 12.77 12.16L12.77 12.16L12.77 12.16Q13.65 12.47 14.57 12.47L14.57 12.47L14.57 12.47Q15.79 12.47 16.39 12.06L16.39 12.06L16.39 12.06Q17.00 11.65 17.00 10.96L17.00 10.96L17.00 10.96Q17.00 10.46 16.67 10.14L16.67 10.14L16.67 10.14Q16.34 9.83 15.86 9.66L15.86 9.66L15.86 9.66Q15.37 9.49 14.49 9.28L14.49 9.28L14.49 9.28Q13.38 9.02 12.70 8.75L12.70 8.75L12.70 8.75Q12.03 8.48 11.54 7.93L11.54 7.93L11.54 7.93Q11.06 7.38 11.06 6.44L11.06 6.44L11.06 6.44Q11.06 5.66 11.47 5.03L11.47 5.03L11.47 5.03Q11.89 4.40 12.73 4.02L12.73 4.02L12.73 4.02Q13.57 3.64 14.81 3.64L14.81 3.64L14.81 3.64Q15.68 3.64 16.52 3.86L16.52 3.86L16.52 3.86Q17.36 4.09 17.96 4.51L17.96 4.51L17.50 5.63L17.50 5.63Q16.88 5.24 16.18 5.03L16.18 5.03L16.18 5.03Q15.48 4.83 14.81 4.83L14.81 4.83L14.81 4.83Q13.62 4.83 13.03 5.26L13.03 5.26L13.03 5.26Q12.43 5.70 12.43 6.38L12.43 6.38L12.43 6.38Q12.43 6.89 12.77 7.20L12.77 7.20L12.77 7.20Q13.10 7.52 13.60 7.69L13.60 7.69L13.60 7.69Q14.10 7.87 14.95 8.06L14.95 8.06L14.95 8.06Q16.06 8.33 16.73 8.60L16.73 8.60L16.73 8.60Q17.40 8.86 17.88 9.41L17.88 9.41L17.88 9.41Q18.37 9.95 18.37 10.88L18.37 10.88L18.37 10.88Q18.37 11.65 17.95 12.29L17.95 12.29L17.95 12.29Q17.53 12.92 16.67 13.29L16.67 13.29L16.67 13.29Q15.82 13.66 14.57 13.66L14.57 13.66ZM27.36 13.55L23.60 9.20L21.81 11.02L21.81 13.55L20.41 13.55L20.41 3.75L21.81 3.75L21.81 9.23L27.13 3.75L28.73 3.75L24.54 8.16L28.99 13.55L27.36 13.55ZM41.57 13.55L40.49 11.10L35.28 11.10L34.20 13.55L32.76 13.55L37.20 3.75L38.58 3.75L43.04 13.55L41.57 13.55ZM35.77 9.98L40.00 9.98L37.88 5.18L35.77 9.98ZM48.26 13.55L48.26 3.75L49.66 3.75L49.66 12.33L54.96 12.33L54.96 13.55L48.26 13.55ZM61.00 13.66L61.00 13.66Q59.51 13.66 58.32 13.01L58.32 13.01L58.32 13.01Q57.13 12.36 56.45 11.21L56.45 11.21L56.45 11.21Q55.78 10.07 55.78 8.65L55.78 8.65L55.78 8.65Q55.78 7.24 56.45 6.09L56.45 6.09L56.45 6.09Q57.13 4.94 58.32 4.29L58.32 4.29L58.32 4.29Q59.51 3.64 61.00 3.64L61.00 3.64L61.00 3.64Q62.47 3.64 63.66 4.29L63.66 4.29L63.66 4.29Q64.85 4.94 65.52 6.08L65.52 6.08L65.52 6.08Q66.19 7.22 66.19 8.65L66.19 8.65L66.19 8.65Q66.19 10.08 65.52 11.22L65.52 11.22L65.52 11.22Q64.85 12.36 63.66 13.01L63.66 13.01L63.66 13.01Q62.47 13.66 61.00 13.66L61.00 13.66ZM61.00 12.42L61.00 12.42Q62.08 12.42 62.94 11.93L62.94 11.93L62.94 11.93Q63.80 11.44 64.30 10.58L64.30 10.58L64.30 10.58Q64.79 9.72 64.79 8.65L64.79 8.65L64.79 8.65Q64.79 7.59 64.30 6.73L64.30 6.73L64.30 6.73Q63.80 5.87 62.94 5.38L62.94 5.38L62.94 5.38Q62.08 4.89 61.00 4.89L61.00 4.89L61.00 4.89Q59.92 4.89 59.05 5.38L59.05 5.38L59.05 5.38Q58.17 5.87 57.67 6.73L57.67 6.73L57.67 6.73Q57.18 7.59 57.18 8.65L57.18 8.65L57.18 8.65Q57.18 9.72 57.67 10.58L57.67 10.58L57.67 10.58Q58.17 11.44 59.05 11.93L59.05 11.93L59.05 11.93Q59.92 12.42 61.00 12.42L61.00 12.42ZM72.72 13.66L72.72 13.66Q71.25 13.66 70.06 13.01L70.06 13.01L70.06 13.01Q68.88 12.36 68.21 11.22L68.21 11.22L68.21 11.22Q67.54 10.08 67.54 8.65L67.54 8.65L67.54 8.65Q67.54 7.22 68.21 6.08L68.21 6.08L68.21 6.08Q68.88 4.94 70.07 4.29L70.07 4.29L70.07 4.29Q71.26 3.64 72.73 3.64L72.73 3.64L72.73 3.64Q73.88 3.64 74.83 4.02L74.83 4.02L74.83 4.02Q75.78 4.41 76.45 5.17L76.45 5.17L75.54 6.05L75.54 6.05Q74.44 4.89 72.79 4.89L72.79 4.89L72.79 4.89Q71.69 4.89 70.81 5.38L70.81 5.38L70.81 5.38Q69.93 5.87 69.43 6.73L69.43 6.73L69.43 6.73Q68.94 7.59 68.94 8.65L68.94 8.65L68.94 8.65Q68.94 9.72 69.43 10.58L69.43 10.58L69.43 10.58Q69.93 11.44 70.81 11.93L70.81 11.93L70.81 11.93Q71.69 12.42 72.79 12.42L72.79 12.42L72.79 12.42Q74.42 12.42 75.54 11.24L75.54 11.24L76.45 12.12L76.45 12.12Q75.78 12.88 74.82 13.27L74.82 13.27L74.82 13.27Q73.86 13.66 72.72 13.66L72.72 13.66ZM85.78 13.55L84.70 11.10L79.49 11.10L78.41 13.55L76.97 13.55L81.41 3.75L82.80 3.75L87.25 13.55L85.78 13.55ZM79.98 9.98L84.21 9.98L82.10 5.18L79.98 9.98ZM88.70 13.55L88.70 3.75L90.10 3.75L90.10 12.33L95.41 12.33L95.41 13.55L88.70 13.55Z"></path></g><!----><g data-v-423bf9ae="" id="8f47f612-855f-46ec-91f3-bdf170501ed1" transform="matrix(1.0791302542110073,0,0,1.0791302542110073,-4.956985536869141,-8.656742034437869)" stroke="none" fill="black"><path d="M44.1 91.7c-.2 0-.5-.1-.7-.2-.5-.3-.8-.9-.7-1.5l2.1-14C22.1 74.1 5.1 59.9 5 42.5 4.9 23.8 25 8.4 49.8 8.3S94.9 23.3 95 42c.1 15.1-13.2 28.6-32.3 32.8L45.1 91.3c-.3.3-.6.4-1 .4zm5.7-80.6c-23.3.1-42.1 14.2-42 31.4.1 16 17.1 29.6 38.7 30.8.4 0 .7.2 1 .5.2.3.4.7.4 1v.2l-1.7 11.4 14.9-14c.2-.2.4-.3.7-.3 18-3.9 30.6-16.3 30.5-30.1-.2-17.1-19.2-31-42.5-30.9z"></path><path d="M69.3 49.8c-3.7 0-6.8-3-6.8-6.7s3-6.8 6.7-6.8 6.8 3 6.8 6.7c.1 3.8-2.9 6.8-6.7 6.8zm0-10.7c-2.2 0-3.9 1.8-3.9 4s1.8 3.9 4 3.9 3.9-1.8 3.9-4c-.1-2.1-1.8-3.9-4-3.9zM50 49.9c-3.7 0-6.8-3-6.8-6.7s3-6.8 6.7-6.8 6.8 3 6.8 6.7c.1 3.8-2.9 6.8-6.7 6.8zm0-10.7c-2.2 0-3.9 1.8-3.9 4s1.8 3.9 4 3.9 3.9-1.8 3.9-4c-.1-2.1-1.8-3.9-4-3.9zM30.7 50c-3.7 0-6.8-3-6.8-6.7s3-6.8 6.7-6.8 6.8 3 6.8 6.7c.1 3.8-2.9 6.8-6.7 6.8zm0-10.7c-2.2 0-3.9 1.8-3.9 4s1.8 3.9 4 3.9 3.9-1.8 3.9-4c-.1-2.1-1.8-3.9-4-3.9z"></path></g><!----></svg>