<svg data-v-423bf9ae="" xmlns="http://www.w3.org/2000/svg" viewBox="0 0 643 90" class="iconLeft"><!----><!----><!----><g data-v-423bf9ae="" id="68ad00ba-de5f-43ee-95a9-62e29c1f6c69" fill="black" transform="matrix(6.072873837395844,0,0,6.072873837395844,114.57212215021883,10.384616912543393)"><path d="M2.55 7.66L6.65 7.66L7.66 10.50L8.85 10.50L5.29 0.90L3.85 0.90L0.42 10.50L1.57 10.50ZM5.17 3.49L6.31 6.72L2.87 6.72L3.98 3.50L4.56 1.79ZM17.29 7.85C17.29 5.80 15.67 5.46 13.89 5.01C12.45 4.65 11.45 4.44 11.45 3.25C11.45 2.35 12.08 1.68 13.54 1.68C15.16 1.68 15.61 2.20 15.88 3.16L17.07 2.95C16.65 1.53 15.75 0.76 13.62 0.76C11.82 0.76 10.25 1.50 10.25 3.29C10.25 5.18 11.76 5.66 13.36 6.02C15.12 6.43 16.11 6.64 16.11 7.92C16.11 9.14 15.25 9.70 13.64 9.70C11.77 9.70 11.23 8.99 10.96 7.97L9.79 8.19C10.16 9.76 11.38 10.64 13.61 10.64C16.14 10.64 17.29 9.46 17.29 7.85ZM25.10 10.50L26.56 10.50L22.37 5.07L26.04 0.90L24.60 0.90L20.31 5.77L20.31 0.90L19.12 0.90L19.12 10.50L20.31 10.50L20.31 7.15L21.62 5.81ZM32.82 7.66L36.92 7.66L37.93 10.50L39.12 10.50L35.56 0.90L34.12 0.90L30.69 10.50L31.84 10.50ZM35.43 3.49L36.58 6.72L33.14 6.72L34.24 3.50L34.83 1.79ZM44.17 10.50L50.05 10.50L50.05 9.52L45.36 9.52L45.36 0.90L44.17 0.90ZM58.91 5.66C58.91 7.99 57.83 9.66 55.40 9.66C53.12 9.66 51.90 8.02 51.90 5.66C51.90 3.28 53.07 1.74 55.41 1.74C57.68 1.74 58.91 3.29 58.91 5.66ZM60.13 5.66C60.13 2.70 58.46 0.76 55.41 0.76C52.36 0.76 50.68 2.66 50.68 5.66C50.68 8.57 52.28 10.64 55.40 10.64C58.39 10.64 60.13 8.67 60.13 5.66ZM66.18 10.64C68.29 10.64 69.61 9.58 70.31 8.11L69.33 7.62C68.71 8.85 67.75 9.65 66.23 9.65C64.05 9.65 62.75 8.02 62.75 5.66C62.75 3.28 63.95 1.74 66.18 1.74C67.79 1.74 68.68 2.55 69.08 3.50L70.22 3.12C69.55 1.54 68.18 0.76 66.16 0.76C63.21 0.76 61.53 2.63 61.53 5.66C61.53 8.57 63.10 10.64 66.18 10.64ZM73.16 7.66L77.27 7.66L78.27 10.50L79.46 10.50L75.91 0.90L74.47 0.90L71.04 10.50L72.18 10.50ZM75.78 3.49L76.93 6.72L73.49 6.72L74.59 3.50L75.18 1.79ZM81.02 10.50L86.90 10.50L86.90 9.52L82.21 9.52L82.21 0.90L81.02 0.90Z"></path></g><!----><g data-v-423bf9ae="" id="b231684b-00af-4a0d-95ac-6a2662b2182a" transform="matrix(1.0791302542110073,0,0,1.0791302542110073,-4.956985536869141,-8.656742034437869)" stroke="none" fill="black"><path d="M44.1 91.7c-.2 0-.5-.1-.7-.2-.5-.3-.8-.9-.7-1.5l2.1-14C22.1 74.1 5.1 59.9 5 42.5 4.9 23.8 25 8.4 49.8 8.3S94.9 23.3 95 42c.1 15.1-13.2 28.6-32.3 32.8L45.1 91.3c-.3.3-.6.4-1 .4zm5.7-80.6c-23.3.1-42.1 14.2-42 31.4.1 16 17.1 29.6 38.7 30.8.4 0 .7.2 1 .5.2.3.4.7.4 1v.2l-1.7 11.4 14.9-14c.2-.2.4-.3.7-.3 18-3.9 30.6-16.3 30.5-30.1-.2-17.1-19.2-31-42.5-30.9z"></path><path d="M69.3 49.8c-3.7 0-6.8-3-6.8-6.7s3-6.8 6.7-6.8 6.8 3 6.8 6.7c.1 3.8-2.9 6.8-6.7 6.8zm0-10.7c-2.2 0-3.9 1.8-3.9 4s1.8 3.9 4 3.9 3.9-1.8 3.9-4c-.1-2.1-1.8-3.9-4-3.9zM50 49.9c-3.7 0-6.8-3-6.8-6.7s3-6.8 6.7-6.8 6.8 3 6.8 6.7c.1 3.8-2.9 6.8-6.7 6.8zm0-10.7c-2.2 0-3.9 1.8-3.9 4s1.8 3.9 4 3.9 3.9-1.8 3.9-4c-.1-2.1-1.8-3.9-4-3.9zM30.7 50c-3.7 0-6.8-3-6.8-6.7s3-6.8 6.7-6.8 6.8 3 6.8 6.7c.1 3.8-2.9 6.8-6.7 6.8zm0-10.7c-2.2 0-3.9 1.8-3.9 4s1.8 3.9 4 3.9 3.9-1.8 3.9-4c-.1-2.1-1.8-3.9-4-3.9z"></path></g><!----></svg>