<svg data-v-423bf9ae="" xmlns="http://www.w3.org/2000/svg" viewBox="0 0 707 90" class="iconLeft"><!----><!----><!----><g data-v-423bf9ae="" id="51c51243-43c6-4a76-b902-1993362ad9e8" fill="currentColor" transform="matrix(5.888125304749934,0,0,5.888125304749934,118.30034724152893,-5.9617243174770564)"><path d="M8.32 13.55L7.55 11.65L3.40 11.65L2.63 13.55L-0.20 13.55L4.13 3.75L6.86 3.75L11.20 13.55L8.32 13.55ZM4.21 9.60L6.73 9.60L5.47 6.47L4.21 9.60ZM15.43 13.75L15.43 13.75Q14.24 13.75 13.12 13.45L13.12 13.45L13.12 13.45Q12.00 13.16 11.30 12.67L11.30 12.67L12.21 10.63L12.21 10.63Q12.87 11.06 13.73 11.33L13.73 11.33L13.73 11.33Q14.60 11.59 15.44 11.59L15.44 11.59L15.44 11.59Q17.04 11.59 17.04 10.79L17.04 10.79L17.04 10.79Q17.04 10.37 16.58 10.17L16.58 10.17L16.58 10.17Q16.13 9.97 15.12 9.74L15.12 9.74L15.12 9.74Q14.01 9.51 13.27 9.23L13.27 9.23L13.27 9.23Q12.53 8.96 12.00 8.36L12.00 8.36L12.00 8.36Q11.47 7.76 11.47 6.73L11.47 6.73L11.47 6.73Q11.47 5.84 11.96 5.12L11.96 5.12L11.96 5.12Q12.45 4.40 13.42 3.98L13.42 3.98L13.42 3.98Q14.39 3.56 15.81 3.56L15.81 3.56L15.81 3.56Q16.77 3.56 17.71 3.77L17.71 3.77L17.71 3.77Q18.65 3.99 19.36 4.41L19.36 4.41L18.51 6.47L18.51 6.47Q17.11 5.71 15.79 5.71L15.79 5.71L15.79 5.71Q14.97 5.71 14.59 5.96L14.59 5.96L14.59 5.96Q14.21 6.20 14.21 6.59L14.21 6.59L14.21 6.59Q14.21 6.99 14.66 7.18L14.66 7.18L14.66 7.18Q15.11 7.38 16.10 7.59L16.10 7.59L16.10 7.59Q17.22 7.83 17.95 8.10L17.95 8.10L17.95 8.10Q18.69 8.37 19.23 8.97L19.23 8.97L19.23 8.97Q19.77 9.56 19.77 10.58L19.77 10.58L19.77 10.58Q19.77 11.47 19.28 12.18L19.28 12.18L19.28 12.18Q18.79 12.89 17.81 13.32L17.81 13.32L17.81 13.32Q16.83 13.75 15.43 13.75L15.43 13.75ZM27.62 13.55L24.82 10.00L23.79 11.10L23.79 13.55L21.04 13.55L21.04 3.75L23.79 3.75L23.79 7.83L27.58 3.75L30.63 3.75L26.63 8.09L30.84 13.55L27.62 13.55ZM42.98 13.55L42.21 11.65L38.07 11.65L37.30 13.55L34.47 13.55L38.79 3.75L41.52 3.75L45.86 13.55L42.98 13.55ZM38.88 9.60L41.40 9.60L40.14 6.47L38.88 9.60ZM50.72 13.55L50.72 3.75L53.49 3.75L53.49 11.35L58.17 11.35L58.17 13.55L50.72 13.55ZM64.20 13.75L64.20 13.75Q62.65 13.75 61.41 13.09L61.41 13.09L61.41 13.09Q60.17 12.43 59.46 11.27L59.46 11.27L59.46 11.27Q58.76 10.11 58.76 8.65L58.76 8.65L58.76 8.65Q58.76 7.20 59.46 6.03L59.46 6.03L59.46 6.03Q60.17 4.87 61.41 4.21L61.41 4.21L61.41 4.21Q62.65 3.56 64.20 3.56L64.20 3.56L64.20 3.56Q65.76 3.56 67.00 4.21L67.00 4.21L67.00 4.21Q68.24 4.87 68.94 6.03L68.94 6.03L68.94 6.03Q69.65 7.20 69.65 8.65L69.65 8.65L69.65 8.65Q69.65 10.11 68.94 11.27L68.94 11.27L68.94 11.27Q68.24 12.43 67.00 13.09L67.00 13.09L67.00 13.09Q65.76 13.75 64.20 13.75L64.20 13.75ZM64.20 11.45L64.20 11.45Q64.95 11.45 65.55 11.10L65.55 11.10L65.55 11.10Q66.15 10.75 66.50 10.11L66.50 10.11L66.50 10.11Q66.85 9.48 66.85 8.65L66.85 8.65L66.85 8.65Q66.85 7.83 66.50 7.19L66.50 7.19L66.50 7.19Q66.15 6.55 65.55 6.20L65.55 6.20L65.55 6.20Q64.95 5.85 64.20 5.85L64.20 5.85L64.20 5.85Q63.46 5.85 62.86 6.20L62.86 6.20L62.86 6.20Q62.26 6.55 61.91 7.19L61.91 7.19L61.91 7.19Q61.56 7.83 61.56 8.65L61.56 8.65L61.56 8.65Q61.56 9.48 61.91 10.11L61.91 10.11L61.91 10.11Q62.26 10.75 62.86 11.10L62.86 11.10L62.86 11.10Q63.46 11.45 64.20 11.45L64.20 11.45ZM75.99 13.75L75.99 13.75Q74.45 13.75 73.23 13.10L73.23 13.10L73.23 13.10Q72.00 12.45 71.30 11.28L71.30 11.28L71.30 11.28Q70.60 10.12 70.60 8.65L70.60 8.65L70.60 8.65Q70.60 7.18 71.30 6.02L71.30 6.02L71.30 6.02Q72.00 4.86 73.23 4.21L73.23 4.21L73.23 4.21Q74.45 3.56 75.99 3.56L75.99 3.56L75.99 3.56Q77.34 3.56 78.41 4.03L78.41 4.03L78.41 4.03Q79.49 4.51 80.21 5.40L80.21 5.40L78.44 7.00L78.44 7.00Q77.49 5.85 76.13 5.85L76.13 5.85L76.13 5.85Q75.33 5.85 74.71 6.20L74.71 6.20L74.71 6.20Q74.09 6.55 73.74 7.19L73.74 7.19L73.74 7.19Q73.40 7.83 73.40 8.65L73.40 8.65L73.40 8.65Q73.40 9.48 73.74 10.11L73.74 10.11L73.74 10.11Q74.09 10.75 74.71 11.10L74.71 11.10L74.71 11.10Q75.33 11.45 76.13 11.45L76.13 11.45L76.13 11.45Q77.49 11.45 78.44 10.30L78.44 10.30L80.21 11.90L80.21 11.90Q79.49 12.80 78.41 13.27L78.41 13.27L78.41 13.27Q77.34 13.75 75.99 13.75L75.99 13.75ZM88.77 13.55L88.00 11.65L83.86 11.65L83.09 13.55L80.26 13.55L84.59 3.75L87.32 3.75L91.66 13.55L88.77 13.55ZM84.67 9.60L87.19 9.60L85.93 6.47L84.67 9.60ZM92.44 13.55L92.44 3.75L95.21 3.75L95.21 11.35L99.89 11.35L99.89 13.55L92.44 13.55Z"></path></g><!----><g data-v-423bf9ae="" id="d438160a-b009-47ac-81e0-208710d35cf9" transform="matrix(1.0791302542110073,0,0,1.0791302542110073,-4.956985536869141,-8.656742034437869)" stroke="none" fill="currentColor"><path d="M44.1 91.7c-.2 0-.5-.1-.7-.2-.5-.3-.8-.9-.7-1.5l2.1-14C22.1 74.1 5.1 59.9 5 42.5 4.9 23.8 25 8.4 49.8 8.3S94.9 23.3 95 42c.1 15.1-13.2 28.6-32.3 32.8L45.1 91.3c-.3.3-.6.4-1 .4zm5.7-80.6c-23.3.1-42.1 14.2-42 31.4.1 16 17.1 29.6 38.7 30.8.4 0 .7.2 1 .5.2.3.4.7.4 1v.2l-1.7 11.4 14.9-14c.2-.2.4-.3.7-.3 18-3.9 30.6-16.3 30.5-30.1-.2-17.1-19.2-31-42.5-30.9z"></path><path d="M69.3 49.8c-3.7 0-6.8-3-6.8-6.7s3-6.8 6.7-6.8 6.8 3 6.8 6.7c.1 3.8-2.9 6.8-6.7 6.8zm0-10.7c-2.2 0-3.9 1.8-3.9 4s1.8 3.9 4 3.9 3.9-1.8 3.9-4c-.1-2.1-1.8-3.9-4-3.9zM50 49.9c-3.7 0-6.8-3-6.8-6.7s3-6.8 6.7-6.8 6.8 3 6.8 6.7c.1 3.8-2.9 6.8-6.7 6.8zm0-10.7c-2.2 0-3.9 1.8-3.9 4s1.8 3.9 4 3.9 3.9-1.8 3.9-4c-.1-2.1-1.8-3.9-4-3.9zM30.7 50c-3.7 0-6.8-3-6.8-6.7s3-6.8 6.7-6.8 6.8 3 6.8 6.7c.1 3.8-2.9 6.8-6.7 6.8zm0-10.7c-2.2 0-3.9 1.8-3.9 4s1.8 3.9 4 3.9 3.9-1.8 3.9-4c-.1-2.1-1.8-3.9-4-3.9z"></path></g><!----></svg>