<svg data-v-423bf9ae="" xmlns="http://www.w3.org/2000/svg" viewBox="0 0 603 90" class="iconLeft"><!----><!----><!----><g data-v-423bf9ae="" id="455c0ab6-674f-4a9c-a995-f98f94f6fa6f" fill="currentColor" transform="matrix(7.159904436827442,0,0,7.159904436827442,116.19193162708402,-2.5417654963823395)"><path d="M0.13 10.64L0.13 10.64L0.13 10.64Q0.13 10.58 0.20 10.21L0.20 10.21L0.20 10.21Q0.38 9.08 0.61 7.88L0.61 7.88L0.61 7.88Q0.84 6.68 1.21 4.89L1.21 4.89L1.21 4.89Q1.58 3.10 1.70 2.55L1.70 2.55L1.70 2.55Q2.38 2.52 3.58 2.52L3.58 2.52L3.58 2.52Q4.69 2.52 5.52 2.55L5.52 2.55L5.52 2.55Q5.58 2.55 5.63 2.59L5.63 2.59L5.63 2.59Q5.67 2.63 5.68 2.68L5.68 2.68L5.68 2.68Q5.83 3.45 6.20 5.17L6.20 5.17L6.20 5.17Q6.56 6.90 6.81 8.23L6.81 8.23L6.81 8.23Q7.06 9.56 7.25 10.75L7.25 10.75L7.25 10.75Q6.60 10.78 6.06 10.78L6.06 10.78L6.06 10.78Q5.19 10.78 4.72 10.75L4.72 10.75L4.72 10.75Q4.66 10.75 4.61 10.71L4.61 10.71L4.61 10.71Q4.57 10.67 4.56 10.61L4.56 10.61L4.56 10.61Q4.40 9.83 4.31 9.25L4.31 9.25L3.04 9.25L3.04 9.25Q2.93 9.98 2.78 10.75L2.78 10.75L2.78 10.75Q2.12 10.78 1.64 10.78L1.64 10.78L1.64 10.78Q1.08 10.78 0.25 10.75L0.25 10.75L0.25 10.75Q0.19 10.75 0.16 10.72L0.16 10.72L0.16 10.72Q0.13 10.68 0.13 10.64ZM3.27 7.47L3.27 7.47L4.04 7.47L4.04 7.47Q3.95 6.91 3.81 5.87L3.81 5.87L3.81 5.87Q3.67 4.83 3.61 4.40L3.61 4.40L3.61 4.40Q3.54 4.96 3.43 6.00L3.43 6.00L3.43 6.00Q3.32 7.04 3.27 7.47ZM7.57 10.67L7.57 10.67L7.91 8.20L7.91 8.20Q9.42 8.67 10.33 8.67L10.33 8.67L10.33 8.67Q10.69 8.67 10.87 8.52L10.87 8.52L10.87 8.52Q11.06 8.37 11.06 8.19L11.06 8.19L11.06 8.19Q11.06 8.12 11.03 8.06L11.03 8.06L11.03 8.06Q11.01 8.01 10.94 7.96L10.94 7.96L10.94 7.96Q10.87 7.91 10.80 7.87L10.80 7.87L10.80 7.87Q10.74 7.84 10.61 7.79L10.61 7.79L10.61 7.79Q10.48 7.75 10.40 7.73L10.40 7.73L10.40 7.73Q10.31 7.70 10.14 7.65L10.14 7.65L10.14 7.65Q9.84 7.57 9.67 7.51L9.67 7.51L9.67 7.51Q9.50 7.46 9.19 7.33L9.19 7.33L9.19 7.33Q8.88 7.21 8.70 7.08L8.70 7.08L8.70 7.08Q8.51 6.95 8.28 6.73L8.28 6.73L8.28 6.73Q8.04 6.51 7.91 6.25L7.91 6.25L7.91 6.25Q7.78 6.00 7.68 5.63L7.68 5.63L7.68 5.63Q7.59 5.26 7.59 4.83L7.59 4.83L7.59 4.83Q7.59 4.36 7.67 4.00L7.67 4.00L7.67 4.00Q7.76 3.63 7.90 3.38L7.90 3.38L7.90 3.38Q8.04 3.13 8.28 2.96L8.28 2.96L8.28 2.96Q8.52 2.79 8.76 2.69L8.76 2.69L8.76 2.69Q9.00 2.59 9.37 2.53L9.37 2.53L9.37 2.53Q9.74 2.48 10.05 2.47L10.05 2.47L10.05 2.47Q10.37 2.45 10.83 2.45L10.83 2.45L10.83 2.45Q11.95 2.45 13.47 2.75L13.47 2.75L13.16 5.02L13.16 5.02Q12.64 4.79 11.97 4.63L11.97 4.63L11.97 4.63Q11.30 4.47 10.69 4.47L10.69 4.47L10.69 4.47Q10.38 4.47 10.19 4.57L10.19 4.57L10.19 4.57Q10.01 4.67 10.01 4.85L10.01 4.85L10.01 4.85Q10.01 4.91 10.04 4.96L10.04 4.96L10.04 4.96Q10.07 5.01 10.14 5.06L10.14 5.06L10.14 5.06Q10.22 5.11 10.28 5.15L10.28 5.15L10.28 5.15Q10.35 5.18 10.49 5.23L10.49 5.23L10.49 5.23Q10.63 5.28 10.72 5.30L10.72 5.30L10.72 5.30Q10.81 5.33 10.99 5.39L10.99 5.39L10.99 5.39Q11.83 5.64 12.26 5.84L12.26 5.84L12.26 5.84Q13.38 6.38 13.69 7.31L13.69 7.31L13.69 7.31Q13.81 7.69 13.81 8.13L13.81 8.13L13.81 8.13Q13.81 8.59 13.72 8.97L13.72 8.97L13.72 8.97Q13.63 9.34 13.47 9.62L13.47 9.62L13.47 9.62Q13.31 9.90 13.07 10.11L13.07 10.11L13.07 10.11Q12.83 10.32 12.55 10.45L12.55 10.45L12.55 10.45Q12.28 10.58 11.93 10.67L11.93 10.67L11.93 10.67Q11.58 10.75 11.23 10.78L11.23 10.78L11.23 10.78Q10.87 10.82 10.46 10.82L10.46 10.82L10.46 10.82Q9.03 10.82 7.57 10.67ZM14.46 6.65L14.46 6.65L14.46 6.65Q14.46 4.73 14.52 2.55L14.52 2.55L14.52 2.55Q15.17 2.52 15.72 2.52L15.72 2.52L15.72 2.52Q16.28 2.52 17.12 2.55L17.12 2.55L17.12 2.55Q17.17 2.55 17.21 2.59L17.21 2.59L17.21 2.59Q17.25 2.63 17.25 2.68L17.25 2.68L17.25 2.68Q17.26 2.84 17.26 3.17L17.26 3.17L17.26 3.17Q17.26 3.51 17.21 5.42L17.21 5.42L17.21 5.42Q17.25 5.42 17.35 5.42L17.35 5.42L17.35 5.42Q17.46 5.42 17.51 5.42L17.51 5.42L17.51 5.42Q17.63 5.03 17.96 4.09L17.96 4.09L17.96 4.09Q18.29 3.14 18.45 2.65L18.45 2.65L18.45 2.65Q18.47 2.59 18.53 2.55L18.53 2.55L18.53 2.55Q18.59 2.52 18.66 2.51L18.66 2.51L18.66 2.51Q19.17 2.48 19.76 2.48L19.76 2.48L19.76 2.48Q20.49 2.48 21.12 2.55L21.12 2.55L21.12 2.55Q20.70 4.35 19.96 5.79L19.96 5.79L19.96 5.79Q19.56 6.48 18.90 6.52L18.90 6.52L18.90 6.54L18.90 6.54Q19.25 6.56 19.53 6.75L19.53 6.75L19.53 6.75Q19.81 6.94 20.01 7.26L20.01 7.26L20.01 7.26Q20.61 8.45 21.15 10.75L21.15 10.75L21.15 10.75Q20.52 10.82 19.71 10.82L19.71 10.82L19.71 10.82Q19.13 10.82 18.62 10.79L18.62 10.79L18.62 10.79Q18.55 10.79 18.49 10.75L18.49 10.75L18.49 10.75Q18.43 10.71 18.41 10.65L18.41 10.65L18.41 10.65Q18.07 9.63 17.46 7.40L17.46 7.40L17.20 7.40L17.20 7.40Q17.20 7.52 17.23 8.57L17.23 8.57L17.23 8.57Q17.26 9.62 17.26 10.17L17.26 10.17L17.26 10.17Q17.26 10.36 17.25 10.75L17.25 10.75L17.25 10.75Q16.60 10.78 16.06 10.78L16.06 10.78L16.06 10.78Q15.49 10.78 14.66 10.75L14.66 10.75L14.66 10.75Q14.60 10.75 14.56 10.71L14.56 10.71L14.56 10.71Q14.52 10.67 14.52 10.61L14.52 10.61L14.52 10.61Q14.46 8.04 14.46 6.65ZM25.36 10.64L25.36 10.64L25.36 10.64Q25.36 10.58 25.42 10.21L25.42 10.21L25.42 10.21Q25.60 9.08 25.84 7.88L25.84 7.88L25.84 7.88Q26.07 6.68 26.44 4.89L26.44 4.89L26.44 4.89Q26.81 3.10 26.92 2.55L26.92 2.55L26.92 2.55Q27.60 2.52 28.80 2.52L28.80 2.52L28.80 2.52Q29.91 2.52 30.75 2.55L30.75 2.55L30.75 2.55Q30.80 2.55 30.85 2.59L30.85 2.59L30.85 2.59Q30.90 2.63 30.91 2.68L30.91 2.68L30.91 2.68Q31.06 3.45 31.42 5.17L31.42 5.17L31.42 5.17Q31.78 6.90 32.03 8.23L32.03 8.23L32.03 8.23Q32.29 9.56 32.47 10.75L32.47 10.75L32.47 10.75Q31.82 10.78 31.28 10.78L31.28 10.78L31.28 10.78Q30.41 10.78 29.94 10.75L29.94 10.75L29.94 10.75Q29.88 10.75 29.84 10.71L29.84 10.71L29.84 10.71Q29.79 10.67 29.78 10.61L29.78 10.61L29.78 10.61Q29.63 9.83 29.53 9.25L29.53 9.25L28.26 9.25L28.26 9.25Q28.15 9.98 28 10.75L28 10.75L28 10.75Q27.34 10.78 26.87 10.78L26.87 10.78L26.87 10.78Q26.30 10.78 25.47 10.75L25.47 10.75L25.47 10.75Q25.42 10.75 25.39 10.72L25.39 10.72L25.39 10.72Q25.36 10.68 25.36 10.64ZM28.49 7.47L28.49 7.47L29.26 7.47L29.26 7.47Q29.18 6.91 29.04 5.87L29.04 5.87L29.04 5.87Q28.90 4.83 28.84 4.40L28.84 4.40L28.84 4.40Q28.77 4.96 28.66 6.00L28.66 6.00L28.66 6.00Q28.54 7.04 28.49 7.47ZM37.06 6.65L37.06 6.65L37.06 6.65Q37.06 4.73 37.12 2.55L37.12 2.55L37.12 2.55Q37.77 2.52 38.32 2.52L38.32 2.52L38.32 2.52Q38.88 2.52 39.72 2.55L39.72 2.55L39.72 2.55Q39.77 2.55 39.81 2.59L39.81 2.59L39.81 2.59Q39.85 2.63 39.85 2.68L39.85 2.68L39.85 2.68Q39.91 5.25 39.91 6.65L39.91 6.65L39.91 6.65Q39.91 7.56 39.90 8.42L39.90 8.42L39.96 8.42L39.96 8.42Q41.20 8.42 42.04 8.45L42.04 8.45L42.04 8.45Q42.10 8.45 42.14 8.49L42.14 8.49L42.14 8.49Q42.18 8.53 42.18 8.59L42.18 8.59L42.18 8.59Q42.19 9.42 42.19 9.77L42.19 9.77L42.19 9.77Q42.19 10.31 42.18 10.78L42.18 10.78L42.18 10.78Q41.53 10.81 40.16 10.81L40.16 10.81L40.16 10.81Q39.82 10.81 38.72 10.79L38.72 10.79L38.72 10.79Q37.62 10.76 37.26 10.75L37.26 10.75L37.26 10.75Q37.20 10.75 37.16 10.71L37.16 10.71L37.16 10.71Q37.12 10.67 37.12 10.61L37.12 10.61L37.12 10.61Q37.06 8.04 37.06 6.65ZM42.40 6.64L42.40 6.64L42.40 6.64Q42.40 5.65 42.61 4.87L42.61 4.87L42.61 4.87Q42.83 4.09 43.23 3.58L43.23 3.58L43.23 3.58Q43.64 3.06 44.21 2.77L44.21 2.77L44.21 2.77Q44.79 2.49 45.51 2.45L45.51 2.45L45.51 2.45Q46.18 2.45 46.70 2.54L46.70 2.54L46.70 2.54Q47.23 2.63 47.66 2.84L47.66 2.84L47.66 2.84Q48.10 3.04 48.41 3.36L48.41 3.36L48.41 3.36Q48.71 3.69 48.93 4.15L48.93 4.15L48.93 4.15Q49.14 4.62 49.24 5.24L49.24 5.24L49.24 5.24Q49.34 5.85 49.34 6.64L49.34 6.64L49.34 6.64Q49.34 7.64 49.12 8.42L49.12 8.42L49.12 8.42Q48.90 9.19 48.49 9.71L48.49 9.71L48.49 9.71Q48.08 10.23 47.50 10.51L47.50 10.51L47.50 10.51Q46.93 10.79 46.20 10.83L46.20 10.83L46.20 10.83Q45.53 10.83 45.01 10.74L45.01 10.74L45.01 10.74Q44.49 10.65 44.06 10.45L44.06 10.45L44.06 10.45Q43.63 10.25 43.32 9.92L43.32 9.92L43.32 9.92Q43.02 9.60 42.80 9.14L42.80 9.14L42.80 9.14Q42.59 8.67 42.50 8.05L42.50 8.05L42.50 8.05Q42.40 7.44 42.40 6.64ZM45.25 6.64L45.25 6.64L45.25 6.64Q45.25 7.12 45.29 7.46L45.29 7.46L45.29 7.46Q45.32 7.79 45.37 7.99L45.37 7.99L45.37 7.99Q45.42 8.18 45.50 8.29L45.50 8.29L45.50 8.29Q45.59 8.39 45.67 8.42L45.67 8.42L45.67 8.42Q45.76 8.45 45.88 8.45L45.88 8.45L45.88 8.45Q46.01 8.45 46.09 8.42L46.09 8.42L46.09 8.42Q46.17 8.39 46.25 8.29L46.25 8.29L46.25 8.29Q46.33 8.18 46.38 7.99L46.38 7.99L46.38 7.99Q46.43 7.79 46.46 7.46L46.46 7.46L46.46 7.46Q46.48 7.12 46.48 6.64L46.48 6.64L46.48 6.64Q46.48 6.25 46.46 5.95L46.46 5.95L46.46 5.95Q46.44 5.65 46.40 5.46L46.40 5.46L46.40 5.46Q46.35 5.26 46.30 5.14L46.30 5.14L46.30 5.14Q46.25 5.01 46.17 4.95L46.17 4.95L46.17 4.95Q46.09 4.89 46.02 4.87L46.02 4.87L46.02 4.87Q45.94 4.84 45.84 4.84L45.84 4.84L45.84 4.84Q45.74 4.84 45.67 4.86L45.67 4.86L45.67 4.86Q45.60 4.88 45.53 4.95L45.53 4.95L45.53 4.95Q45.46 5.01 45.41 5.14L45.41 5.14L45.41 5.14Q45.36 5.26 45.33 5.46L45.33 5.46L45.33 5.46Q45.29 5.65 45.27 5.95L45.27 5.95L45.27 5.95Q45.25 6.24 45.25 6.64ZM49.78 6.64L49.78 6.64L49.78 6.64Q49.78 5.69 49.95 4.97L49.95 4.97L49.95 4.97Q50.12 4.26 50.44 3.78L50.44 3.78L50.44 3.78Q50.75 3.30 51.22 3.00L51.22 3.00L51.22 3.00Q51.69 2.70 52.26 2.58L52.26 2.58L52.26 2.58Q52.82 2.45 53.54 2.45L53.54 2.45L53.54 2.45Q53.92 2.45 54.26 2.51L54.26 2.51L54.26 2.51Q54.60 2.56 55.10 2.68L55.10 2.68L54.80 4.83L53.54 4.74L53.54 4.74Q53.38 4.73 53.26 4.77L53.26 4.77L53.26 4.77Q53.13 4.81 53.01 4.93L53.01 4.93L53.01 4.93Q52.89 5.05 52.81 5.26L52.81 5.26L52.81 5.26Q52.73 5.47 52.68 5.82L52.68 5.82L52.68 5.82Q52.64 6.17 52.64 6.64L52.64 6.64L52.64 6.64Q52.64 7.12 52.68 7.47L52.68 7.47L52.68 7.47Q52.72 7.82 52.80 8.03L52.80 8.03L52.80 8.03Q52.87 8.24 52.99 8.36L52.99 8.36L52.99 8.36Q53.10 8.48 53.23 8.52L53.23 8.52L53.23 8.52Q53.36 8.56 53.54 8.55L53.54 8.55L54.80 8.47L55.08 10.63L55.08 10.63Q54.27 10.78 53.51 10.78L53.51 10.78L53.51 10.78Q53.11 10.78 52.78 10.75L52.78 10.75L52.78 10.75Q52.44 10.72 52.12 10.65L52.12 10.65L52.12 10.65Q51.79 10.58 51.52 10.47L51.52 10.47L51.52 10.47Q51.26 10.35 51.01 10.18L51.01 10.18L51.01 10.18Q50.77 10.00 50.58 9.77L50.58 9.77L50.58 9.77Q50.39 9.54 50.24 9.24L50.24 9.24L50.24 9.24Q50.08 8.93 49.98 8.54L49.98 8.54L49.98 8.54Q49.89 8.16 49.83 7.69L49.83 7.69L49.83 7.69Q49.78 7.21 49.78 6.64ZM55.23 10.64L55.23 10.64L55.23 10.64Q55.23 10.58 55.30 10.21L55.30 10.21L55.30 10.21Q55.48 9.08 55.71 7.88L55.71 7.88L55.71 7.88Q55.94 6.68 56.31 4.89L56.31 4.89L56.31 4.89Q56.68 3.10 56.79 2.55L56.79 2.55L56.79 2.55Q57.48 2.52 58.67 2.52L58.67 2.52L58.67 2.52Q59.79 2.52 60.62 2.55L60.62 2.55L60.62 2.55Q60.68 2.55 60.72 2.59L60.72 2.59L60.72 2.59Q60.77 2.63 60.78 2.68L60.78 2.68L60.78 2.68Q60.93 3.45 61.29 5.17L61.29 5.17L61.29 5.17Q61.65 6.90 61.91 8.23L61.91 8.23L61.91 8.23Q62.16 9.56 62.34 10.75L62.34 10.75L62.34 10.75Q61.70 10.78 61.15 10.78L61.15 10.78L61.15 10.78Q60.28 10.78 59.81 10.75L59.81 10.75L59.81 10.75Q59.76 10.75 59.71 10.71L59.71 10.71L59.71 10.71Q59.66 10.67 59.65 10.61L59.65 10.61L59.65 10.61Q59.50 9.83 59.40 9.25L59.40 9.25L58.14 9.25L58.14 9.25Q58.03 9.98 57.87 10.75L57.87 10.75L57.87 10.75Q57.22 10.78 56.74 10.78L56.74 10.78L56.74 10.78Q56.17 10.78 55.34 10.75L55.34 10.75L55.34 10.75Q55.29 10.75 55.26 10.72L55.26 10.72L55.26 10.72Q55.23 10.68 55.23 10.64ZM58.37 7.47L58.37 7.47L59.13 7.47L59.13 7.47Q59.05 6.91 58.91 5.87L58.91 5.87L58.91 5.87Q58.77 4.83 58.71 4.40L58.71 4.40L58.71 4.40Q58.64 4.96 58.53 6.00L58.53 6.00L58.53 6.00Q58.42 7.04 58.37 7.47ZM62.84 6.65L62.84 6.65L62.84 6.65Q62.84 4.73 62.89 2.55L62.89 2.55L62.89 2.55Q63.54 2.52 64.09 2.52L64.09 2.52L64.09 2.52Q64.65 2.52 65.49 2.55L65.49 2.55L65.49 2.55Q65.54 2.55 65.58 2.59L65.58 2.59L65.58 2.59Q65.63 2.63 65.63 2.68L65.63 2.68L65.63 2.68Q65.68 5.25 65.68 6.65L65.68 6.65L65.68 6.65Q65.68 7.56 65.67 8.42L65.67 8.42L65.73 8.42L65.73 8.42Q66.98 8.42 67.81 8.45L67.81 8.45L67.81 8.45Q67.87 8.45 67.91 8.49L67.91 8.49L67.91 8.49Q67.95 8.53 67.95 8.59L67.95 8.59L67.95 8.59Q67.96 9.42 67.96 9.77L67.96 9.77L67.96 9.77Q67.96 10.31 67.95 10.78L67.95 10.78L67.95 10.78Q67.30 10.81 65.93 10.81L65.93 10.81L65.93 10.81Q65.59 10.81 64.49 10.79L64.49 10.79L64.49 10.79Q63.39 10.76 63.03 10.75L63.03 10.75L63.03 10.75Q62.97 10.75 62.93 10.71L62.93 10.71L62.93 10.71Q62.89 10.67 62.89 10.61L62.89 10.61L62.89 10.61Q62.84 8.04 62.84 6.65Z"></path></g><!----><g data-v-423bf9ae="" id="a977f8fb-d0f5-4e14-b5c1-81b88f826160" transform="matrix(1.0791302542110073,0,0,1.0791302542110073,-4.956985536869141,-8.656742034437869)" stroke="none" fill="currentColor"><path d="M44.1 91.7c-.2 0-.5-.1-.7-.2-.5-.3-.8-.9-.7-1.5l2.1-14C22.1 74.1 5.1 59.9 5 42.5 4.9 23.8 25 8.4 49.8 8.3S94.9 23.3 95 42c.1 15.1-13.2 28.6-32.3 32.8L45.1 91.3c-.3.3-.6.4-1 .4zm5.7-80.6c-23.3.1-42.1 14.2-42 31.4.1 16 17.1 29.6 38.7 30.8.4 0 .7.2 1 .5.2.3.4.7.4 1v.2l-1.7 11.4 14.9-14c.2-.2.4-.3.7-.3 18-3.9 30.6-16.3 30.5-30.1-.2-17.1-19.2-31-42.5-30.9z"></path><path d="M69.3 49.8c-3.7 0-6.8-3-6.8-6.7s3-6.8 6.7-6.8 6.8 3 6.8 6.7c.1 3.8-2.9 6.8-6.7 6.8zm0-10.7c-2.2 0-3.9 1.8-3.9 4s1.8 3.9 4 3.9 3.9-1.8 3.9-4c-.1-2.1-1.8-3.9-4-3.9zM50 49.9c-3.7 0-6.8-3-6.8-6.7s3-6.8 6.7-6.8 6.8 3 6.8 6.7c.1 3.8-2.9 6.8-6.7 6.8zm0-10.7c-2.2 0-3.9 1.8-3.9 4s1.8 3.9 4 3.9 3.9-1.8 3.9-4c-.1-2.1-1.8-3.9-4-3.9zM30.7 50c-3.7 0-6.8-3-6.8-6.7s3-6.8 6.7-6.8 6.8 3 6.8 6.7c.1 3.8-2.9 6.8-6.7 6.8zm0-10.7c-2.2 0-3.9 1.8-3.9 4s1.8 3.9 4 3.9 3.9-1.8 3.9-4c-.1-2.1-1.8-3.9-4-3.9z"></path></g><!----></svg>